<?xml version="1.0" standalone="yes"?><svg xmlns="http://www.w3.org/2000/svg" xmlns:xlink="http://www.w3.org/1999/xlink" version="1.1" x="0px" y="0px" viewBox="0 0 100 100" enable-background="new 0 0 100 100" xml:space="preserve" style="zoom: 1;"><path d="M88.106,47.78l-0.929-0.929l-2.248-2.248V9.126c0-2.184-1.775-3.957-3.961-3.957c-2.192,0-3.961,1.77-3.961,3.957v0.02 c-0.103,0-0.207-0.002-0.31,0.029c-0.132,0.04-0.358,0.102-0.617,0.164c-0.123,0.029-0.241,0.056-0.352,0.078 c-0.236,0.047-0.425,0.072-0.522,0.072s-0.286-0.025-0.522-0.072c-0.111-0.022-0.229-0.048-0.352-0.078 c-0.075-0.018-0.139-0.035-0.207-0.053V9.126c0-2.184-1.775-3.957-3.961-3.957c-2.192,0-3.961,1.77-3.961,3.957v0.02 c-0.103,0-0.207-0.002-0.31,0.029c-0.132,0.04-0.358,0.102-0.617,0.164c-0.123,0.029-0.241,0.056-0.352,0.078 c-0.236,0.047-0.425,0.072-0.522,0.072s-0.286-0.025-0.522-0.072c-0.111-0.022-0.229-0.048-0.352-0.078 c-0.075-0.018-0.139-0.035-0.207-0.053V9.126c0-2.184-1.775-3.957-3.961-3.957c-2.192,0-3.961,1.77-3.961,3.957v0.02 c-0.103,0-0.207-0.002-0.31,0.029c-0.132,0.04-0.358,0.102-0.617,0.164c-0.123,0.029-0.241,0.056-0.352,0.078 c-0.236,0.047-0.425,0.072-0.522,0.072s-0.286-0.025-0.522-0.072c-0.111-0.022-0.229-0.048-0.352-0.078 c-0.075-0.018-0.139-0.035-0.207-0.053V9.126c0-2.184-1.775-3.957-3.961-3.957c-2.193,0-3.961,1.77-3.961,3.957v0.02 c-0.103,0-0.207-0.002-0.31,0.029c-0.132,0.04-0.358,0.102-0.617,0.164c-0.123,0.029-0.241,0.056-0.352,0.078 c-0.236,0.047-0.425,0.072-0.522,0.072s-0.286-0.025-0.522-0.072c-0.111-0.022-0.229-0.048-0.352-0.078 c-0.075-0.018-0.139-0.035-0.207-0.053V9.126c0-2.184-1.775-3.957-3.961-3.957c-2.193,0-3.961,1.77-3.961,3.957v0.02 c-0.103,0-0.207-0.002-0.31,0.029c-0.132,0.04-0.358,0.102-0.617,0.164c-0.123,0.029-0.241,0.056-0.352,0.078 c-0.236,0.047-0.425,0.072-0.522,0.072s-0.286-0.025-0.522-0.072c-0.111-0.022-0.229-0.048-0.352-0.078 c-0.075-0.018-0.139-0.035-0.207-0.053V9.126c0-2.184-1.775-3.957-3.961-3.957c-2.193,0-3.961,1.77-3.961,3.957v0.02 c-0.103,0-0.207-0.002-0.31,0.029c-0.132,0.04-0.358,0.102-0.617,0.164c-0.123,0.029-0.241,0.056-0.352,0.078 c-0.236,0.047-0.425,0.072-0.522,0.072s-0.286-0.025-0.522-0.072c-0.111-0.022-0.229-0.048-0.352-0.078 c-0.075-0.018-0.139-0.035-0.207-0.053V9.126c0-2.184-1.775-3.957-3.961-3.957c-2.192,0-3.961,1.77-3.961,3.957v70.585 c0,0.715,0.205,1.376,0.537,1.955c-1.146,0.38-1.978,1.449-1.978,2.723c0,1.14,0.665,2.114,1.624,2.582 c-0.778,0.836-1.264,1.948-1.264,3.18c0,2.585,2.096,4.681,4.681,4.681c2.585,0,4.681-2.096,4.681-4.681 c0-1.137-0.422-2.166-1.096-2.977c1.249-0.315,2.177-1.438,2.177-2.784c0-1.275-0.831-2.342-1.976-2.722 c0.299-0.522,0.482-1.114,0.515-1.751c0.074-0.019,0.145-0.038,0.228-0.058c0.123-0.029,0.241-0.056,0.352-0.078 c0.236-0.047,0.425-0.072,0.522-0.072s0.286,0.025,0.522,0.072c0.111,0.022,0.229,0.048,0.352,0.078 c0.259,0.062,0.485,0.125,0.617,0.164c0.115,0.035,0.231,0.036,0.345,0.032c0.177,2.021,1.858,3.615,3.926,3.615 c2.084,0,3.767-1.605,3.929-3.643c0.015-0.004,0.029,0,0.043-0.004c0.132-0.04,0.358-0.102,0.617-0.164 c0.123-0.029,0.241-0.056,0.352-0.078c0.236-0.047,0.425-0.072,0.522-0.072s0.286,0.025,0.522,0.072 c0.111,0.022,0.229,0.048,0.352,0.078c0.218,0.052,0.4,0.102,0.535,0.141c0.15,2.047,1.845,3.67,3.932,3.67 c2.122,0,3.832-1.663,3.94-3.753c0.074-0.019,0.145-0.038,0.228-0.058c0.123-0.029,0.241-0.056,0.352-0.078 c0.236-0.047,0.425-0.072,0.522-0.072s0.286,0.025,0.522,0.072c0.111,0.022,0.229,0.048,0.352,0.078 c0.259,0.062,0.484,0.125,0.617,0.164c0.115,0.035,0.231,0.036,0.345,0.032c0.177,2.021,1.858,3.615,3.926,3.615 c2.122,0,3.832-1.663,3.94-3.753c0.074-0.019,0.145-0.038,0.228-0.058c0.123-0.029,0.241-0.056,0.352-0.078 c0.236-0.047,0.425-0.072,0.522-0.072s0.286,0.025,0.522,0.072c0.111,0.022,0.229,0.048,0.352,0.078 c0.259,0.062,0.485,0.125,0.617,0.164c0.115,0.035,0.231,0.036,0.345,0.032c0.177,2.021,1.858,3.615,3.926,3.615 c2.122,0,3.832-1.663,3.94-3.753c0.074-0.019,0.145-0.038,0.228-0.058c0.123-0.029,0.241-0.056,0.352-0.078 c0.236-0.047,0.425-0.072,0.522-0.072s0.286,0.025,0.522,0.072c0.111,0.022,0.229,0.048,0.352,0.078 c0.259,0.062,0.485,0.125,0.617,0.164c0.115,0.035,0.231,0.036,0.345,0.032c0.177,2.021,1.858,3.615,3.926,3.615 c2.122,0,3.832-1.663,3.94-3.753c0.074-0.019,0.145-0.038,0.228-0.058c0.123-0.029,0.241-0.056,0.352-0.078 c0.236-0.047,0.425-0.072,0.522-0.072s0.286,0.025,0.522,0.072c0.111,0.022,0.229,0.048,0.352,0.078 c0.259,0.062,0.485,0.125,0.617,0.164c0.115,0.035,0.231,0.036,0.345,0.032c0.051,0.584,0.225,1.128,0.503,1.612 c-1.146,0.38-1.978,1.449-1.978,2.723c0,1.14,0.665,2.114,1.624,2.582c-0.778,0.836-1.264,1.948-1.264,3.18 c0,2.585,2.096,4.681,4.681,4.681s4.681-2.096,4.681-4.681c0-1.137-0.422-2.166-1.096-2.977c1.249-0.315,2.177-1.438,2.177-2.784 c0-1.275-0.831-2.342-1.976-2.722c0.331-0.579,0.535-1.24,0.535-1.956v-3.07l2.248-2.248l0.929-0.929 c0.69-0.69,1.145-1.786,1.145-2.758V50.539C89.25,49.568,88.793,48.467,88.106,47.78z M14.351,9.126c0-0.992,0.799-1.797,1.8-1.797 c0.994,0,1.8,0.808,1.8,1.797v70.585c0,0.992-0.799,1.797-1.8,1.797c-0.994,0-1.8-0.808-1.8-1.797V9.126z M15.791,92.671 c-1.392,0-2.521-1.129-2.521-2.521c0-1.392,1.129-2.521,2.521-2.521c1.392,0,2.521,1.129,2.521,2.521 C18.312,91.543,17.183,92.671,15.791,92.671z M18.674,85.109h-5.045c-0.397,0-0.718-0.32-0.718-0.72c0-0.398,0.321-0.72,0.718-0.72 h5.045c0.397,0,0.718,0.32,0.718,0.72C19.392,84.787,19.071,85.109,18.674,85.109z M22.57,77.757 c-0.148-0.036-0.293-0.068-0.432-0.096c-0.364-0.073-0.675-0.114-0.945-0.114s-0.581,0.042-0.945,0.114 c-0.044,0.009-0.09,0.02-0.135,0.03V11.506c0.044,0.01,0.091,0.021,0.135,0.03c0.364,0.073,0.675,0.114,0.945,0.114 s0.581-0.042,0.945-0.114c0.139-0.028,0.284-0.06,0.432-0.095c0.146-0.035,0.286-0.072,0.423-0.109v66.536 C22.856,77.829,22.716,77.792,22.57,77.757z M28.754,79.711c0,0.992-0.799,1.797-1.8,1.797c-0.994,0-1.8-0.808-1.8-1.797V9.126 c0-0.992,0.799-1.797,1.8-1.797c0.994,0,1.8,0.808,1.8,1.797V79.711z M33.362,77.661c-0.364-0.073-0.675-0.114-0.945-0.114 s-0.581,0.042-0.945,0.114c-0.139,0.028-0.284,0.06-0.432,0.096c-0.043,0.01-0.082,0.022-0.124,0.032V11.506 c0.044,0.01,0.091,0.021,0.135,0.03c0.364,0.073,0.675,0.114,0.945,0.114s0.581-0.042,0.945-0.114 c0.139-0.028,0.284-0.06,0.432-0.095c0.146-0.035,0.286-0.072,0.423-0.109v66.427c-0.001,0-0.001,0-0.002,0 C33.646,77.721,33.501,77.689,33.362,77.661z M39.557,79.711c0,0.992-0.799,1.797-1.8,1.797c-0.994,0-1.8-0.808-1.8-1.797V9.126 c0-0.992,0.799-1.797,1.8-1.797c0.994,0,1.8,0.808,1.8,1.797V79.711z M44.176,77.757c-0.148-0.036-0.293-0.068-0.432-0.096 c-0.364-0.073-0.675-0.114-0.945-0.114s-0.581,0.042-0.945,0.114c-0.044,0.009-0.09,0.02-0.135,0.03V11.506 c0.044,0.01,0.091,0.021,0.135,0.03c0.364,0.073,0.676,0.114,0.945,0.114s0.581-0.042,0.945-0.114 c0.139-0.028,0.284-0.06,0.432-0.095c0.146-0.035,0.286-0.072,0.423-0.109v66.536C44.461,77.829,44.321,77.792,44.176,77.757z M50.36,79.711c0,0.992-0.799,1.797-1.8,1.797c-0.994,0-1.8-0.808-1.8-1.797V9.126c0-0.992,0.799-1.797,1.8-1.797 c0.994,0,1.8,0.808,1.8,1.797V79.711z M54.978,77.757c-0.148-0.036-0.293-0.068-0.432-0.096c-0.364-0.073-0.675-0.114-0.945-0.114 s-0.581,0.042-0.945,0.114c-0.044,0.009-0.09,0.02-0.135,0.03V11.506c0.044,0.01,0.091,0.021,0.135,0.03 c0.364,0.073,0.675,0.114,0.945,0.114s0.581-0.042,0.945-0.114c0.139-0.028,0.284-0.06,0.432-0.095 c0.146-0.035,0.286-0.072,0.423-0.109v66.536C55.264,77.829,55.124,77.792,54.978,77.757z M61.163,79.711 c0,0.992-0.799,1.797-1.8,1.797c-0.994,0-1.8-0.808-1.8-1.797V9.126c0-0.992,0.799-1.797,1.8-1.797c0.994,0,1.8,0.808,1.8,1.797 V79.711z M65.781,77.757c-0.148-0.036-0.293-0.068-0.432-0.096c-0.364-0.073-0.675-0.114-0.945-0.114s-0.581,0.042-0.945,0.114 c-0.044,0.009-0.09,0.02-0.135,0.03V11.506c0.044,0.01,0.091,0.021,0.135,0.03c0.364,0.073,0.675,0.114,0.945,0.114 s0.581-0.042,0.945-0.114c0.139-0.028,0.284-0.06,0.432-0.095c0.146-0.035,0.286-0.072,0.423-0.109v66.536 C66.067,77.829,65.927,77.792,65.781,77.757z M79.168,9.126c0-0.992,0.799-1.797,1.8-1.797c0.994,0,1.8,0.808,1.8,1.797v70.585 c0,0.992-0.799,1.797-1.8,1.797c-0.994,0-1.8-0.808-1.8-1.797V9.126z M71.966,79.711c0,0.992-0.799,1.797-1.8,1.797 c-0.994,0-1.8-0.808-1.8-1.797V9.126c0-0.992,0.799-1.797,1.8-1.797c0.994,0,1.8,0.808,1.8,1.797V79.711z M76.584,77.757 c-0.148-0.036-0.293-0.068-0.432-0.096c-0.364-0.073-0.675-0.114-0.945-0.114s-0.581,0.042-0.945,0.114 c-0.044,0.009-0.09,0.02-0.135,0.03V11.506c0.044,0.01,0.091,0.021,0.135,0.03c0.364,0.073,0.675,0.114,0.945,0.114 s0.581-0.042,0.945-0.114c0.139-0.028,0.284-0.06,0.432-0.095c0.146-0.035,0.286-0.072,0.423-0.109v66.536 C76.87,77.829,76.73,77.792,76.584,77.757z M80.608,92.671c-1.392,0-2.521-1.129-2.521-2.521c0-1.392,1.129-2.521,2.521-2.521 c1.392,0,2.521,1.129,2.521,2.521C83.129,91.543,82,92.671,80.608,92.671z M83.49,85.109h-5.045c-0.397,0-0.718-0.32-0.718-0.72 c0-0.398,0.321-0.72,0.718-0.72h5.045c0.397,0,0.718,0.32,0.718,0.72C84.209,84.787,83.887,85.109,83.49,85.109z M87.09,70.707 c0,0.397-0.225,0.944-0.512,1.231l-0.928,0.928V48.38l0.928,0.928c0.283,0.283,0.512,0.834,0.512,1.231V70.707z"></path></svg>