<?xml version="1.0" standalone="yes"?><svg xmlns="http://www.w3.org/2000/svg" xmlns:xlink="http://www.w3.org/1999/xlink" version="1.1" x="0px" y="0px" viewBox="0 0 90 100" enable-background="new 0 0 90 90" xml:space="preserve" style="zoom: 1;"><path d="M22.543,14.686c-0.629,0-1.26,0.504-1.26,1.5l-0.938,26.719h-5.683c-1.41,0-2.588,0.641-3.38,1.525 s-1.271,1.963-1.661,3.031l-2.568,7.047c0.511-0.166,1.046-0.275,1.609-0.275h72.416c0.563,0,1.099,0.109,1.604,0.275l-2.562-7.041 c-0.391-1.068-0.875-2.152-1.662-3.037c-0.792-0.885-1.969-1.525-3.385-1.525H26.497l0.079,2.316c0,1.615-1.505,2.215-2.625,2.215 c0.51-0.428,0.833-1.059,0.822-1.771l-0.967-29.479C23.805,15.174,23.169,14.68,22.543,14.686z"></path><path d="M34.778,62.721c1.245,0,2.25,1.006,2.25,2.25c0,1.24-1.006,2.25-2.25,2.25c-1.239,0-2.25-1.01-2.25-2.25 C32.529,63.727,33.539,62.721,34.778,62.721z M25.368,62.721c1.244,0,2.249,1.006,2.249,2.25c0,1.24-1.005,2.25-2.249,2.25 c-1.24,0-2.251-1.01-2.251-2.25C23.117,63.727,24.127,62.721,25.368,62.721z M15.956,62.721c1.24,0,2.25,1.006,2.25,2.25 c0,1.24-1.01,2.25-2.25,2.25c-1.245,0-2.249-1.01-2.249-2.25C13.707,63.727,14.71,62.721,15.956,62.721z M8.664,56.314 c-1.718,0-3.031,1.277-3.031,2.844c0,0.137-0.026,0.271-0.078,0.396v10.588c0,2.734,2.322,4.922,5.109,4.922h68.416 c2.782,0,5.104-2.188,5.104-4.922V59.555c-0.052-0.125-0.079-0.26-0.079-0.396c0-1.566-1.307-2.844-3.025-2.844H8.664z"></path><path d="M54.126,62.576c-1.172-0.037-2.141,0.906-2.141,2.078s0.969,2.113,2.141,2.078h19.932c1.172,0.035,2.141-0.906,2.141-2.078 s-0.969-2.115-2.141-2.078H54.126z"></path><path d="M35.393,31.014c-1.266,0-1.891-1.543-0.989-2.43c2.776-2.775,6.542-4.336,10.469-4.336c3.921,0,7.692,1.561,10.468,4.336 c0.567,0.553,0.579,1.465,0.016,2.027c-0.563,0.559-1.475,0.547-2.027-0.027c-2.243-2.242-5.286-3.504-8.457-3.504 c-3.177,0-6.214,1.262-8.458,3.504C36.144,30.861,35.778,31.014,35.393,31.014z"></path><path d="M29.482,26.795c-1.198-0.125-1.709-1.596-0.844-2.434c4.307-4.301,10.145-6.725,16.234-6.725 c6.088,0,11.926,2.424,16.233,6.725c0.615,0.543,0.641,1.49,0.063,2.068c-0.577,0.578-1.525,0.545-2.068-0.068 c-3.771-3.77-8.89-5.891-14.228-5.891c-5.338,0-10.458,2.121-14.234,5.891C30.341,26.674,29.914,26.836,29.482,26.795z"></path><path d="M40.31,35.533c-1.276,0-1.907-1.551-0.991-2.438c1.475-1.469,3.47-2.297,5.553-2.297c2.078,0,4.078,0.828,5.552,2.297 c0.566,0.553,0.578,1.465,0.014,2.027c-0.563,0.557-1.473,0.547-2.024-0.027c-0.938-0.938-2.214-1.463-3.542-1.463 c-1.329,0-2.605,0.525-3.542,1.463C41.059,35.373,40.695,35.533,40.31,35.533z"></path></svg>