<?xml version="1.0" standalone="yes"?><svg xmlns="http://www.w3.org/2000/svg" xmlns:xlink="http://www.w3.org/1999/xlink" version="1.1" x="0px" y="0px" viewBox="0 0 90 50" enable-background="new 0 0 90 90" xml:space="preserve" style="zoom: 1;"><path d="M35.393,31.014 c-1.266,0 -1.891,-1.543 -0.989,-2.43 c2.776,-2.775 6.542,-4.336 10.469,-4.336 c3.921,0 7.692,1.561 10.468,4.336 c0.567,0.553 0.579,1.465 0.016,2.027 c-0.563,0.559 -1.475,0.547 -2.027,-0.027 c-2.243,-2.242 -5.286,-3.504 -8.457,-3.504 c-3.177,0 -6.214,1.262 -8.458,3.504 C36.144,30.861 35.778,31.014 35.393,31.014 "></path><path d="M29.482,26.795 c-1.198,-0.125 -1.709,-1.596 -0.844,-2.434 c4.307,-4.301 10.145,-6.725 16.234,-6.725 c6.088,0 11.926,2.424 16.233,6.725 c0.615,0.543 0.641,1.49 0.063,2.068 c-0.577,0.578 -1.525,0.545 -2.068,-0.068 c-3.771,-3.77 -8.89,-5.891 -14.228,-5.891 c-5.338,0 -10.458,2.121 -14.234,5.891 C30.341,26.674 29.914,26.836 29.482,26.795 "></path><path d="M40.31,35.533 c-1.276,0 -1.907,-1.551 -0.991,-2.438 c1.475,-1.469 3.47,-2.297 5.553,-2.297 c2.078,0 4.078,0.828 5.552,2.297 c0.566,0.553 0.578,1.465 0.014,2.027 c-0.563,0.557 -1.473,0.547 -2.024,-0.027 c-0.938,-0.938 -2.214,-1.463 -3.542,-1.463 c-1.329,0 -2.605,0.525 -3.542,1.463 C41.059,35.373 40.695,35.533 40.31,35.533 "></path></svg>